<?xml version="1.0" standalone="no"?>
<!DOCTYPE svg PUBLIC "-//W3C//DTD SVG 20010904//EN"
 "http://www.w3.org/TR/2001/REC-SVG-20010904/DTD/svg10.dtd">
<svg version="1.0" xmlns="http://www.w3.org/2000/svg"
 width="326.000000pt" height="203.000000pt" viewBox="0 0 326.000000 203.000000"
 preserveAspectRatio="xMidYMid meet">

<g transform="translate(0.000000,203.000000) scale(0.100000,-0.100000)"
fill="#000000" stroke="none">
<path d="M1460 1889 c-73 -14 -167 -67 -224 -124 -163 -166 -175 -424 -28
-602 73 -90 223 -163 335 -163 l51 0 -54 33 c-77 46 -103 97 -98 198 6 139 70
193 271 229 145 25 175 46 142 96 -27 42 -132 45 -187 4 -23 -17 -42 -20 -118
-20 -49 0 -90 4 -90 9 0 4 5 23 11 42 20 58 59 100 118 127 49 23 69 26 156
26 55 0 114 -3 130 -7 28 -7 27 -4 -22 42 -105 99 -247 138 -393 110z"/>
<path d="M1780 1342 c-47 -13 -96 -28 -108 -35 -32 -15 -55 -63 -47 -96 12
-48 33 -61 96 -61 51 0 63 4 94 31 39 35 58 85 53 144 l-3 40 -85 -23z"/>
<path d="M2641 947 c-14 -6 -26 -18 -29 -25 -2 -8 6 -7 25 5 35 20 79 12 88
-17 3 -11 10 -20 15 -20 18 0 -12 48 -37 59 -30 14 -32 14 -62 -2z"/>
<path d="M2532 898 c-7 -7 -12 -18 -12 -24 0 -7 -8 -15 -18 -19 -28 -8 -44
-49 -31 -82 9 -25 6 -31 -41 -77 l-50 -51 0 123 0 122 -75 0 -75 0 0 -260 0
-260 75 0 75 0 0 49 c0 80 20 83 77 12 l48 -61 94 0 93 0 -28 38 c-16 20 -55
70 -87 111 l-58 74 72 73 c40 40 74 72 75 71 12 -13 153 -371 149 -378 -8 -12
-51 -12 -74 0 -15 8 -22 1 -44 -44 -26 -54 -26 -55 -6 -66 11 -6 45 -13 75
-16 74 -8 137 17 169 66 19 28 195 442 195 457 0 2 -33 4 -73 4 l-74 0 -38
-100 c-20 -55 -40 -100 -44 -100 -3 0 -22 42 -42 94 -26 66 -33 98 -27 110 17
30 5 70 -24 84 -16 7 -28 17 -28 23 0 5 -5 9 -10 9 -18 0 4 -30 31 -44 17 -8
24 -20 24 -41 l0 -30 -162 -3 c-154 -2 -163 -1 -173 18 -14 26 3 60 30 60 13
0 20 7 20 19 0 23 25 45 44 38 8 -3 20 -18 28 -34 7 -15 22 -29 32 -31 15 -3
12 4 -14 37 -35 43 -73 54 -98 29z"/>
<path d="M1908 870 c-136 -24 -206 -140 -143 -237 20 -29 80 -58 156 -74 30
-6 64 -18 77 -26 66 -41 -81 -61 -167 -23 -24 11 -45 19 -46 18 -1 -2 -12 -27
-24 -57 -22 -53 -22 -55 -5 -68 44 -32 187 -50 265 -34 71 15 115 46 140 98
53 109 -19 186 -203 219 -81 14 -71 64 12 64 26 0 67 -7 90 -15 24 -8 44 -14
46 -12 6 5 44 99 44 107 0 12 -86 38 -145 43 -27 3 -71 2 -97 -3z"/>
<path d="M267 848 c-3 -7 -51 -116 -106 -242 -56 -126 -101 -231 -101 -233 0
-2 36 -3 80 -3 l81 0 19 45 19 45 95 0 94 0 18 -45 17 -45 83 0 84 0 -13 33
c-8 17 -56 128 -107 245 l-93 212 -82 0 c-57 0 -84 -4 -88 -12z m106 -190 c8
-24 18 -51 22 -60 6 -16 1 -18 -40 -18 -44 0 -47 1 -41 23 7 30 35 97 40 97 2
0 11 -19 19 -42z"/>
<path d="M612 752 c2 -5 37 -93 78 -195 l75 -187 81 0 80 0 73 183 c40 100 75
188 78 195 4 9 -14 12 -68 12 l-74 0 -40 -100 c-22 -55 -43 -100 -47 -100 -3
0 -10 10 -14 23 -4 12 -20 57 -36 100 l-30 77 -80 0 c-44 0 -78 -4 -76 -8z"/>
<path d="M1150 744 c-25 -9 -47 -18 -49 -20 -3 -2 6 -27 19 -54 18 -38 28 -49
39 -44 53 21 75 25 106 20 19 -4 39 -16 45 -26 10 -19 7 -20 -47 -20 -123 0
-183 -37 -183 -112 0 -75 50 -118 135 -118 48 0 99 20 108 42 3 7 6 0 6 -15
l1 -28 73 3 72 3 -1 130 c0 150 -13 191 -72 227 -48 29 -185 36 -252 12z m168
-235 c5 -25 -27 -51 -57 -47 -32 4 -41 36 -15 55 24 18 68 13 72 -8z"/>
<path d="M2600 176 c-12 -63 -20 -120 -18 -127 2 -7 16 44 30 114 14 70 22
127 18 127 -4 0 -17 -51 -30 -114z"/>
<path d="M1806 250 c-20 -79 -42 -210 -36 -210 4 0 11 17 14 37 14 76 10 73
93 73 l75 0 -7 -57 c-4 -32 -4 -55 -1 -52 7 7 46 195 45 218 -1 17 -13 -15
-23 -61 -6 -28 -7 -28 -85 -28 l-79 0 9 41 c10 45 6 80 -5 39z"/>
<path d="M2280 230 c0 -12 -7 -20 -17 -20 -15 0 -15 -2 -4 -9 12 -8 13 -20 4
-68 -6 -32 -8 -63 -6 -70 7 -18 30 -23 55 -13 21 8 19 9 -11 9 l-34 1 7 54 c8
75 14 86 45 87 l26 1 -25 7 c-16 5 -24 13 -22 24 2 9 -2 17 -8 17 -5 0 -10 -9
-10 -20z"/>
<path d="M2056 179 c-61 -72 -7 -157 81 -128 37 12 63 52 63 97 0 40 -28 62
-77 62 -34 0 -46 -6 -67 -31z m120 -4 c33 -51 -7 -115 -73 -115 -61 0 -81 72
-33 120 29 29 85 27 106 -5z"/>
<path d="M2409 197 c-42 -32 -52 -102 -19 -132 22 -20 76 -24 105 -7 13 7 3 8
-32 5 -44 -5 -52 -2 -67 18 -30 43 -22 49 59 49 73 0 75 1 75 24 0 14 -7 32
-16 40 -18 19 -82 21 -105 3z m99 -9 c7 -7 12 -20 12 -30 0 -15 -9 -18 -65
-18 -50 0 -65 3 -65 14 0 36 90 62 118 34z"/>
<path d="M70 130 c0 -7 278 -10 815 -10 537 0 815 3 815 10 0 7 -278 10 -815
10 -537 0 -815 -3 -815 -10z"/>
</g>
</svg>
